<svg xmlns="http://www.w3.org/2000/svg" width="1600" height="500" viewBox="0 0 1600 500" font-family="'Geist','Inter',-apple-system,'Segoe UI',sans-serif">
  <defs>
    <linearGradient id="bg2" x1="0" y1="0" x2="1" y2="1"><stop offset="0" stop-color="#1c1d21"/><stop offset="1" stop-color="#141518"/></linearGradient>
    <radialGradient id="glow2" cx="0.9" cy="0.5" r="0.7"><stop offset="0" stop-color="#3E6FE0" stop-opacity="0.28"/><stop offset="1" stop-color="#3E6FE0" stop-opacity="0"/></radialGradient>
    <linearGradient id="mark2" x1="0" y1="0" x2="1" y2="1"><stop offset="0" stop-color="#7aa0ff"/><stop offset="1" stop-color="#3E6FE0"/></linearGradient>
  </defs>
  <rect width="1600" height="500" fill="url(#bg2)"/>
  <rect width="1600" height="500" fill="url(#glow2)"/>
  <g transform="translate(96,70)">
    <rect width="38" height="38" rx="10" fill="#ffffff"/>
    <path d="M14 10 L14 28 L29 19 Z" fill="#141518"/>
    <text x="52" y="27" fill="#ffffff" font-size="24" font-weight="600" letter-spacing="-0.6">Workeros</text>
  </g>
  <text x="96" y="258" fill="#ECEDEF" font-size="68" font-weight="700" letter-spacing="-2.2">Hire AI workers that actually run.</text>
  <text x="96" y="318" fill="#9A9EA6" font-size="26" font-weight="400">Describe the job in plain English. Workeros drafts the worker, wires the tools and brain,</text>
  <text x="96" y="354" fill="#9A9EA6" font-size="26" font-weight="400">runs it on a trigger, and shows every step.</text>
  <g transform="translate(96,398)">
    <rect width="232" height="52" rx="12" fill="#ffffff"/>
    <text x="116" y="33" fill="#141518" font-size="19" font-weight="600" text-anchor="middle">Hire your first worker</text>
  </g>
  <text x="352" y="430" fill="#5B8DEF" font-size="20" font-weight="500">workers.floom.dev</text>
  <g transform="translate(1150,120)" opacity="0.95">
    <circle cx="130" cy="130" r="130" fill="url(#mark2)" opacity="0.16"/>
    <circle cx="130" cy="130" r="70" fill="url(#mark2)"/>
    <path d="M130 88 l10 26 26 10 -26 10 -10 26 -10 -26 -26 -10 26 -10 z" fill="#ffffff" fill-opacity="0.96"/>
  </g>
</svg>
